<svg width="60" height="60" viewBox="0 0 60 60" fill="none" xmlns="http://www.w3.org/2000/svg">
<circle cx="30" cy="30" r="30" fill="#CEA464"/>
<g clip-path="url(#clip0)">
<path d="M26.75 35.6121V40.2501C26.75 40.5741 26.958 40.8611 27.266 40.9631C27.343 40.9881 27.422 41.0001 27.5 41.0001C27.734 41.0001 27.96 40.8901 28.104 40.6941L30.817 37.0021L26.75 35.6121Z" fill="white"/>
<path d="M41.6849 18.139C41.4549 17.976 41.1529 17.954 40.9029 18.085L18.4029 29.835C18.1369 29.974 17.9799 30.258 18.0019 30.557C18.0249 30.857 18.2239 31.113 18.5069 31.21L24.7619 33.348L38.0829 21.958L27.7749 34.377L38.2579 37.96C38.3359 37.986 38.4179 38 38.4999 38C38.6359 38 38.7709 37.963 38.8899 37.891C39.0799 37.775 39.2089 37.58 39.2419 37.361L41.9919 18.861C42.0329 18.581 41.9149 18.303 41.6849 18.139Z" fill="white"/>
</g>
<defs>
<clipPath id="clip0">
<rect width="24" height="24" fill="white" transform="translate(18 18)"/>
</clipPath>
</defs>
</svg>
