<svg width="46" height="46" viewBox="0 0 46 46" fill="none" xmlns="http://www.w3.org/2000/svg">
<path d="M1.34766 8.17578C2.09192 8.17578 2.69531 7.57239 2.69531 6.82812V2.69531H6.82812C7.57239 2.69531 8.17578 2.09192 8.17578 1.34766C8.17578 0.603391 7.57239 0 6.82812 0H1.34766C0.603391 0 0 0.603391 0 1.34766V6.82812C0 7.57239 0.603391 8.17578 1.34766 8.17578Z" fill="#706458"/>
<path d="M1.34766 46H6.82812C7.57239 46 8.17578 45.3966 8.17578 44.6523C8.17578 43.9081 7.57239 43.3047 6.82812 43.3047H2.69531V39.1719C2.69531 38.4276 2.09192 37.8242 1.34766 37.8242C0.603391 37.8242 0 38.4276 0 39.1719V44.6523C0 45.3966 0.603391 46 1.34766 46Z" fill="#706458"/>
<path d="M44.6523 8.17578C45.3966 8.17578 46 7.57239 46 6.82812V1.34766C46 0.603391 45.3966 0 44.6523 0H39.1719C38.4276 0 37.8242 0.603391 37.8242 1.34766C37.8242 2.09192 38.4276 2.69531 39.1719 2.69531H43.3047V6.82812C43.3047 7.57239 43.9081 8.17578 44.6523 8.17578Z" fill="#706458"/>
<path d="M44.6523 37.8242C43.9081 37.8242 43.3047 38.4276 43.3047 39.1719V43.3047H39.1719C38.4276 43.3047 37.8242 43.9081 37.8242 44.6523C37.8242 45.3966 38.4276 46 39.1719 46H44.6523C45.3966 46 46 45.3966 46 44.6523V39.1719C46 38.4276 45.3966 37.8242 44.6523 37.8242Z" fill="#706458"/>
<path d="M23 32.4336C28.2017 32.4336 32.4336 28.2017 32.4336 23C32.4336 17.7983 28.2017 13.5664 23 13.5664C17.7983 13.5664 13.5664 17.7983 13.5664 23C13.5664 28.2017 17.7983 32.4336 23 32.4336ZM23 16.2617C26.7155 16.2617 29.7383 19.2845 29.7383 23C29.7383 26.7155 26.7155 29.7383 23 29.7383C19.2845 29.7383 16.2617 26.7155 16.2617 23C16.2617 19.2845 19.2845 16.2617 23 16.2617Z" fill="#706458"/>
<path d="M23 27.043C25.2293 27.043 27.043 25.2293 27.043 23C27.043 20.7707 25.2293 18.957 23 18.957C20.7707 18.957 18.957 20.7707 18.957 23C18.957 25.2293 20.7707 27.043 23 27.043ZM23 21.6523C23.7431 21.6523 24.3477 22.2569 24.3477 23C24.3477 23.7431 23.7431 24.3477 23 24.3477C22.2569 24.3477 21.6523 23.7431 21.6523 23C21.6523 22.2569 22.2569 21.6523 23 21.6523Z" fill="#706458"/>
<path d="M6.83026 30.7608C11.3756 34.663 16.9895 37.8242 23.0001 37.8242C29.0109 37.8242 34.6249 34.6626 39.1699 30.7608C43.1694 27.3273 45.6412 23.9324 45.7446 23.7895C46.0853 23.3182 46.0853 22.6816 45.7446 22.2104C45.6413 22.0675 43.1694 18.6726 39.1699 15.2391C34.6245 11.337 29.0106 8.17578 23.0001 8.17578C16.9893 8.17578 11.3753 11.3374 6.83026 15.2392C2.83077 18.6727 0.358903 22.0676 0.255583 22.2105C-0.0851943 22.6818 -0.0851943 23.3184 0.255583 23.7896C0.358903 23.9324 2.83086 27.3274 6.83026 30.7608ZM23.0001 10.8711C28.7207 10.8711 33.9714 14.3375 37.369 17.2456C40.0295 19.5227 42.0058 21.8277 42.9477 22.9995C42.0186 24.1538 40.082 26.4097 37.465 28.6661C33.7177 31.897 28.5758 35.1289 23.0001 35.1289C17.2794 35.1289 12.0287 31.6625 8.63109 28.7544C5.97045 26.4771 3.99407 24.172 3.05242 23.0005C3.98149 21.8462 5.91825 19.5903 8.53522 17.3339C12.2824 14.103 17.4244 10.8711 23.0001 10.8711Z" fill="#706458"/>
</svg>
