<svg width="44" height="44" viewBox="0 0 44 44" fill="none" xmlns="http://www.w3.org/2000/svg">
<path d="M22.757 1.51434C19.358 1.51434 16.0071 2.33327 13.0041 3.88964L9.49279 0.378146C9.18224 0.0674227 8.73479 -0.0638883 8.30557 0.0295611C7.87636 0.123011 7.52407 0.428399 7.37065 0.840058L5.59752 5.59763L0.840025 7.37067C0.428365 7.5241 0.122977 7.87639 0.0295271 8.3056C-0.0638363 8.73481 0.0673888 9.18218 0.378113 9.49282L3.88952 13.0043C2.33315 16.0073 1.51422 19.3581 1.51422 22.7571C1.51422 34.4705 11.0437 44 22.757 44C34.4704 44 44 34.4705 44 22.7571C44 11.0438 34.4704 1.51434 22.757 1.51434V1.51434ZM22.757 29.7484C26.6121 29.7484 29.7484 26.6122 29.7484 22.7571C29.7484 18.902 26.6121 15.7658 22.757 15.7658C21.2949 15.7658 19.9368 16.2177 18.8134 16.9881L15.5679 13.7426C17.5411 12.1658 20.0407 11.2215 22.757 11.2215C29.1178 11.2215 34.2927 16.3964 34.2927 22.7571C34.2927 29.1179 29.1178 34.2928 22.757 34.2928C16.3963 34.2928 11.2214 29.1179 11.2214 22.7571C11.2214 20.0408 12.1657 17.5412 13.7425 15.568L16.988 18.8135C16.2176 19.9369 15.7657 21.295 15.7657 22.7571C15.7657 26.6121 18.902 29.7484 22.757 29.7484V29.7484ZM23.6697 21.8444L20.689 18.8637C21.3062 18.5345 22.0101 18.3472 22.757 18.3472C25.1887 18.3472 27.167 20.3255 27.167 22.757C27.167 25.1886 25.1887 27.1669 22.757 27.1669C20.3254 27.1669 18.3472 25.1886 18.3472 22.757C18.3472 22.01 18.5345 21.3063 18.8636 20.689L21.8444 23.6698C22.0964 23.9218 22.4268 24.0478 22.757 24.0478C23.0874 24.0478 23.4177 23.9217 23.6697 23.6698C24.1738 23.1658 24.1738 22.3485 23.6697 21.8444V21.8444ZM9.08802 3.62409L13.4314 7.9676L12.8731 11.0477L8.10009 6.27484L9.08802 3.62409ZM3.62406 9.08804L6.27481 8.1002L11.0478 12.8731L7.96757 13.4315L3.62406 9.08804ZM22.757 41.4185C12.4672 41.4185 4.0957 33.0471 4.0957 22.7571C4.0957 20.0484 4.68789 17.375 5.81849 14.9332L6.62004 15.7347C6.86425 15.979 7.19347 16.1128 7.53268 16.1128C7.60917 16.1128 7.68619 16.106 7.76294 16.0922L10.6073 15.5766C9.35838 17.6818 8.64004 20.1369 8.64004 22.7571C8.64004 30.5413 14.9729 36.8743 22.7571 36.8743C30.5413 36.8743 36.8743 30.5413 36.8743 22.7571C36.8743 14.9729 30.5413 8.63999 22.7571 8.63999C20.1369 8.63999 17.6818 9.35841 15.5766 10.6073L16.0922 7.76297C16.1676 7.34649 16.0341 6.91935 15.7348 6.62007L14.9333 5.81852C17.375 4.68792 20.0484 4.09573 22.7572 4.09573C33.0471 4.09573 41.4186 12.4672 41.4186 22.757C41.4185 33.0471 33.047 41.4185 22.757 41.4185V41.4185Z" fill="#706458"/>
</svg>
